HIERARCHY
ROOT Hips
{
  OFFSET 41.7364 100.235 5.09538
  CHANNELS 6 Xposition Yposition Zposition Zrotation Xrotation Yrotation
  JOINT spine
  {
    OFFSET 0 8.81705 0.507024
    CHANNELS 3 Zrotation Xrotation Yrotation
    JOINT spine1
    {
      OFFSET 0 10.7766 0
      CHANNELS 3 Zrotation Xrotation Yrotation
      JOINT spine2
      {
        OFFSET 0 10.3259 0
        CHANNELS 3 Zrotation Xrotation Yrotation
        JOINT Neck
        {
          OFFSET 0 26.511 1.26395
          CHANNELS 3 Zrotation Xrotation Yrotation
          JOINT Head
          {
            OFFSET 0 8.00966 0
            CHANNELS 3 Zrotation Xrotation Yrotation
            End Site
            {
              OFFSET 0 19.3879 -6.39386
            }
          }
        }
        JOINT RightShoulder
        {
          OFFSET -4.34795 11.1512 -0.605422
          CHANNELS 3 Zrotation Xrotation Yrotation
          JOINT RightArm
          {
            OFFSET 0 14.6258 0
            CHANNELS 3 Zrotation Xrotation Yrotation
            JOINT RightArmRoll
            {
              OFFSET 0 7.3834 0
              CHANNELS 3 Zrotation Xrotation Yrotation
              JOINT RightForeArm
              {
                OFFSET 0 21.5052 0
                CHANNELS 3 Zrotation Xrotation Yrotation
                JOINT RightForeArmRoll
                {
                  OFFSET 0 8.28532 0
                  CHANNELS 3 Zrotation Xrotation Yrotation
                  JOINT RightHand
                  {
                    OFFSET 0 16.6268 0
                    CHANNELS 3 Zrotation Xrotation Yrotation
                    End Site
                    {
                      OFFSET 0 0 0
                    }
                  }
                }
              }
            }
          }
        }
        JOINT LeftShoulder
        {
          OFFSET 4.34795 11.1512 -0.605422
          CHANNELS 3 Zrotation Xrotation Yrotation
          JOINT LeftArm
          {
            OFFSET 0 14.6258 0
            CHANNELS 3 Zrotation Xrotation Yrotation
            JOINT LeftArmRoll
            {
              OFFSET 0 7.3834 0
              CHANNELS 3 Zrotation Xrotation Yrotation
              JOINT LeftForeArm
              {
                OFFSET 0 21.5052 0
                CHANNELS 3 Zrotation Xrotation Yrotation
                JOINT LeftForeArmRoll
                {
                  OFFSET 0 8.28532 0
                  CHANNELS 3 Zrotation Xrotation Yrotation
                  JOINT LeftHand
                  {
                    OFFSET 0 16.6268 0
                    CHANNELS 3 Zrotation Xrotation Yrotation
                    End Site
                    {
                      OFFSET 0 0 0
                    }
                  }
                }
              }
            }
          }
        }
      }
    }
  }
  JOINT RightUpLeg
  {
    OFFSET -7.8151 -1.43309 -1.20217
    CHANNELS 3 Zrotation Xrotation Yrotation
    JOINT RightUpLegRoll
    {
      OFFSET 0 19.4959 0
      CHANNELS 3 Zrotation Xrotation Yrotation
      JOINT RightLeg
      {
        OFFSET 0 -24.1427 0
        CHANNELS 3 Zrotation Xrotation Yrotation
        JOINT RightLegRoll
        {
          OFFSET 0 24.2217 0
          CHANNELS 3 Zrotation Xrotation Yrotation
          JOINT RightFoot
          {
            OFFSET 0 20.1605 0
            CHANNELS 3 Zrotation Xrotation Yrotation
            JOINT RightToeBase
            {
              OFFSET 0 16.8532 0
              CHANNELS 3 Zrotation Xrotation Yrotation
              End Site
              {
                OFFSET 0.00714343 8.16187 -0.94078
              }
            }
          }
        }
      }
    }
  }
  JOINT LeftUpLeg
  {
    OFFSET 7.8151 -1.43309 -1.20217
    CHANNELS 3 Zrotation Xrotation Yrotation
    JOINT LeftUpLegRoll
    {
      OFFSET 0 19.496 0
      CHANNELS 3 Zrotation Xrotation Yrotation
      JOINT LeftLeg
      {
        OFFSET 0 24.1426 0
        CHANNELS 3 Zrotation Xrotation Yrotation
        JOINT LeftLegRoll
        {
          OFFSET 0 24.4456 0
          CHANNELS 3 Zrotation Xrotation Yrotation
          JOINT LeftFoot
          {
            OFFSET 0 19.9366 0
            CHANNELS 3 Zrotation Xrotation Yrotation
            JOINT LeftToeBase
            {
              OFFSET 0 16.8532 0
              CHANNELS 3 Zrotation Xrotation Yrotation
              End Site
              {
                OFFSET -0.0320138 8.16187 -0.94078
              }
            }
          }
        }
      }
    }
  }
}
MOTION
Frames: 5
Frame Time: 0.00208333
41.7339 118.036 8.85017 -1.17574 4.82694 8.7808 0.0562625 -2.48164 0.325864 0.120605 -0.952116 0.646934 0.112863 0.692914 0.644961 -3.69909 -9.39071 -3.07817 0.486948 13.3426 -3.37705 43.8908 -11.8206 -7.66383 103.852 -26.8499 -64.1838 -6.36111e-015 -2.54444e-014 6.36111e-015 -102.336 69.2235 80.7281 1.41553e-005 -3.61265e-006 -3.00968 8.02893 -4.95147 0.697672 -47.5339 -5.72518 2.89298 -105.918 -16.0097 43.0315 -1.37155e-005 -1.30677e-007 -8.60605e-007 48.04 82.1261 -39.131 9.05021e-006 -5.56907e-006 3 -8.02893 -4.95146 -0.697693 173.421 11.7323 6.86597 180 7.01493e-015 178.71 172.712 28.6872 -179.315 6.54413e-007 -3.04859e-006 0.459777 -18.1265 67.6547 19.2549 8.13649 25.2327 -3.48774 -175.129 16.0143 -1.6417 4.54188e-006 -4.6773e-006 -1.08591 -4.1883 -26.0089 -0.0913519 -1.36169e-006 -1.87513e-007 -0.369808 18.4838 67.9667 -19.5022 -8.1365 25.2327 3.48774 
41.745 117.991 8.81636 -1.21531 4.87613 8.80528 0.0566929 -2.47874 0.327784 0.121389 -0.945944 0.65073 0.113601 0.699085 0.648745 -3.68901 -9.48242 -3.10937 0.4931 13.2792 -3.40521 43.8725 -11.8618 -7.69847 103.749 -26.958 -64.2955 3.18055e-015 -1.11319e-014 -0 -102.258 69.2497 80.6872 1.41553e-005 -3.61265e-006 -3.00968 8.02893 -4.95147 0.697672 -47.5499 -5.69669 2.87223 -105.799 -16.0409 43.0084 -1.37155e-005 -1.30677e-007 -8.60605e-007 47.4316 82.1171 -38.5846 9.05021e-006 -5.56907e-006 3 -8.02893 -4.95146 -0.697693 173.489 11.8283 6.81287 180 7.01494e-015 178.714 172.716 28.6569 -179.317 6.54413e-007 -3.04859e-006 0.458331 -18.1343 67.6638 19.2632 8.13649 25.2327 -3.48774 -175.088 16.1222 -1.67246 4.54188e-006 -4.6773e-006 -1.08584 -4.188 -26.062 -0.0913593 -1.36169e-006 -1.87513e-007 -0.370888 18.4759 67.9586 -19.4953 -8.1365 25.2327 3.48774 
41.7143 117.917 8.79149 -1.25469 4.92395 8.82705 0.0571297 -2.47533 0.328818 0.122195 -0.938892 0.652754 0.114383 0.706138 0.650756 -3.68146 -9.57904 -3.13644 0.501625 13.2233 -3.42906 43.85 -11.8983 -7.72929 103.667 -27.0593 -64.3761 -1.27222e-014 -1.90833e-014 -9.54166e-015 -102.145 69.2907 80.6311 1.41553e-005 -3.61265e-006 -3.00968 8.02893 -4.95147 0.697672 -47.5687 -5.67572 2.85736 -105.68 -16.07 42.9775 -1.37155e-005 -1.30677e-007 -8.60605e-007 46.7936 82.1063 -38.0118 9.05021e-006 -5.56907e-006 3 -8.02893 -4.95146 -0.697693 173.558 11.9251 6.75556 180 7.01495e-015 178.718 172.724 28.6245 -179.319 6.54413e-007 -3.04859e-006 0.45689 -18.1416 67.6722 19.271 8.13649 25.2327 -3.48774 -175.046 16.2276 -1.70392 4.54188e-006 -4.6773e-006 -1.08573 -4.18826 -26.1125 -0.0915159 -1.36169e-006 -1.87513e-007 -0.371901 18.4684 67.9508 -19.4889 -8.1365 25.2327 3.48774 
41.6923 117.861 8.7545 -1.29384 4.97015 8.84561 0.0575782 -2.47134 0.328825 0.123037 -0.930832 0.652722 0.115226 0.714197 0.650711 -3.67662 -9.6817 -3.15866 0.512718 13.1764 -3.4478 43.8227 -11.9292 -7.75566 103.609 -27.1533 -64.4217 6.36111e-015 6.36111e-015 6.36111e-015 -101.993 69.3477 80.5573 1.41553e-005 -3.61265e-006 -3.00968 8.02893 -4.95147 0.697672 -47.5901 -5.66354 2.84933 -105.56 -16.0969 42.9383 -1.37155e-005 -1.30677e-007 -8.60605e-007 46.1253 82.0932 -37.4117 9.05021e-006 -5.56907e-006 3 -8.02893 -4.95146 -0.697693 173.63 12.0228 6.69376 180 7.01497e-015 178.723 172.737 28.5906 -179.323 6.54413e-007 -3.04859e-006 0.455467 -18.1482 67.6801 19.2781 8.13649 25.2327 -3.48774 -175.003 16.3301 -1.73638 4.54188e-006 -4.6773e-006 -1.08558 -4.1893 -26.1603 -0.0918744 -1.36169e-006 -1.87513e-007 -0.372844 18.4615 67.9436 -19.4829 -8.1365 25.2327 3.48774 
41.6653 117.788 8.72748 -1.33305 5.01461 8.8619 0.0581774 -2.46687 0.327932 0.124202 -0.921967 0.650876 0.116413 0.723063 0.648847 -3.67403 -9.78701 -3.17646 0.524971 13.135 -3.46205 43.7901 -11.9553 -7.77811 103.574 -27.2407 -64.4335 -3.18055e-015 -2.06736e-014 9.54166e-015 -101.803 69.4218 80.4679 1.41553e-005 -3.61265e-006 -3.00968 8.02893 -4.95147 0.697672 -47.6164 -5.65774 2.84646 -105.437 -16.1215 42.8935 -1.37155e-005 -1.30677e-007 -8.60605e-007 45.4302 82.0782 -36.7878 9.05021e-006 -5.56907e-006 3 -8.02893 -4.95146 -0.697693 173.706 12.1196 6.62633 180 7.01498e-015 178.727 172.756 28.5511 -179.329 6.54413e-007 -3.04859e-006 0.454013 -18.1538 67.6869 19.2844 8.13649 25.2327 -3.48774 -174.958 16.4287 -1.76912 4.54188e-006 -4.6773e-006 -1.08537 -4.19063 -26.2038 -0.0923108 -1.36169e-006 -1.87513e-007 -0.373694 18.4551 67.9371 -19.4775 -8.1365 25.2327 3.48774 
